<svg xmlns="http://www.w3.org/2000/svg" version="1.1" xmlns:xlink="http://www.w3.org/1999/xlink" width="512" height="512" x="0" y="0" viewBox="0 0 512 512" style="enable-background:new 0 0 512 512" xml:space="preserve" class=""><g><circle cx="256" cy="256" r="256" fill="#4f6cbe" opacity="1" data-original="#4f6cbe" class=""></circle><path fill="#28416d" d="m346.059 218.373-48.451-48.451-53.87 53.87L120.946 101l-19.35 19.35 16.781 16.781-16.781 16.781v237.077l7.18 7.18L95.944 411l91.777 91.777C209.46 508.778 232.352 512 256 512c141.385 0 256-114.615 256-256 0-13.112-.99-25.992-2.892-38.573l-81.051-81.051z" opacity="1" data-original="#28416d"></path><path fill="#e9edf5" d="M118.003 131h40v15h-40z" opacity="1" data-original="#e9edf5"></path><path fill="#cdd2e1" d="M118.003 206h40v15h-40z" opacity="1" data-original="#cdd2e1"></path><path fill="#ffffff" d="M95.944 101h25v310h-25zM381.916 131.406l-46.679-5.028-23.206 5.724-23.204-10.722-46.411-4.998-23.205 10.26-23.205-15.259-46.41-4.998V176l139.23 20.093L428.057 176z" opacity="1" data-original="#ffffff"></path><path fill="#e9edf5" d="m381.916 220.594-46.679 5.028-23.206-5.724-23.204 10.722-46.411 4.998-23.205-10.26-23.205 15.259-46.41 4.998V176h278.461z" opacity="1" data-original="#e9edf5"></path><path fill="#db3c2c" d="m242.416 116.382-46.41-4.999V176l23.205 9.173L242.416 176z" opacity="1" data-original="#db3c2c"></path><path fill="#c92820" d="m242.416 235.618-46.41 4.999V176h46.41z" opacity="1" data-original="#c92820"></path><path fill="#db3c2c" d="m335.237 126.378-46.411-4.998V176l23.205 9.173L335.237 176z" opacity="1" data-original="#db3c2c"></path><path fill="#c92820" d="m335.237 225.622-46.411 4.998V176h46.411z" opacity="1" data-original="#c92820"></path><path fill="#db3c2c" d="m428.057 136.375-46.41-4.999V176l23.205 9.173L428.057 176z" opacity="1" data-original="#db3c2c"></path><path fill="#c92820" d="m428.057 215.625-46.41 4.998V176h46.41z" opacity="1" data-original="#c92820"></path><g fill="#e9edf5"><path d="M282.121 317.598h100v15h-100zM327.711 252.598c-13.807 0-25 11.193-25 25h15c0-5.514 4.486-10 10-10s10 4.486 10 10-4.486 10-10 10h-125v15h125c13.807 0 25-11.193 25-25s-11.192-25-25-25zM327.711 397.598c-13.807 0-25-11.193-25-25h15c0 5.514 4.486 10 10 10s10-4.486 10-10-4.486-10-10-10h-125v-15h125c13.807 0 25 11.193 25 25s-11.192 25-25 25z" fill="#e9edf5" opacity="1" data-original="#e9edf5"></path></g></g></svg>