<?xml version="1.0" encoding="utf-8"?>
<svg class="w-auto h-7 sm:h-8" viewBox="0 0 140 140" fill="none" xmlns="http://www.w3.org/2000/svg" xmlns:bx="https://boxy-svg.com" width="140px" height="140px"><defs><bx:export><bx:file format="svg" href="#object-0"/><bx:file format="svg" path="Untitled 2.svg" excluded="true"/><bx:file format="svg" path="Untitled 3.svg"/></bx:export></defs><path d="M 35.1 94.631 L 25.814 103.901 C 24.682 105.032 22.746 104.229 22.746 102.628 L 22.746 79.493 C 22.746 77.892 24.682 77.089 25.816 78.221 L 35.099 87.497 C 36.049 88.442 36.582 89.725 36.583 91.064 C 36.584 92.404 36.05 93.688 35.099 94.632 L 35.1 94.631 Z M 104.898 94.631 L 114.183 103.901 C 115.317 105.032 117.253 104.229 117.253 102.628 L 117.253 79.493 C 117.253 77.892 115.316 77.089 114.183 78.221 L 104.898 87.497 C 103.951 88.442 103.417 89.725 103.416 91.064 C 103.416 92.404 103.95 93.688 104.899 94.632 L 104.898 94.631 Z M 67.442 75.133 L 28.883 36.629 C 26.618 34.367 22.746 35.972 22.746 39.175 L 22.746 55.689 C 22.747 56.644 23.126 57.559 23.802 58.234 L 63.112 97.475 C 66.913 101.256 73.055 101.256 76.855 97.475 L 116.195 58.243 C 116.872 57.568 117.254 56.651 117.253 55.696 L 117.253 39.181 C 117.253 35.978 113.381 34.373 111.114 36.636 L 72.556 75.133 C 71.143 76.543 68.856 76.543 67.441 75.133 L 67.442 75.133 Z" fill="#2563eb" id="object-0" style=""/></svg>