<?xml version="1.0" encoding="utf-8"?>
<svg xmlns="http://www.w3.org/2000/svg" class="data-[auto=true]:sm:hidden block text-foreground text-default-400 group-data-[selected=true]:text-primary" fill="currentColor" height="44" viewBox="0 0 43 43" width="44">
  <path d="M 30.755 40.45 L 12.245 40.45 C 9.673 40.457 7.204 39.434 5.39 37.61 C 3.566 35.796 2.543 33.327 2.55 30.755 L 2.55 12.245 C 2.543 9.672 3.566 7.204 5.39 5.39 C 7.204 3.565 9.673 2.543 12.245 2.55 L 30.755 2.55 C 33.328 2.543 35.797 3.565 37.611 5.39 C 39.435 7.204 40.458 9.672 40.45 12.245 L 40.45 30.755 C 40.457 33.327 39.435 35.796 37.61 37.61 C 35.796 39.434 33.328 40.457 30.755 40.45 Z M 12.522 13.385 L 12.522 23.991 C 12.506 25.015 12.771 26.024 13.289 26.908 C 13.803 27.765 14.541 28.466 15.424 28.935 C 16.401 29.445 17.491 29.7 18.592 29.678 C 19.695 29.701 20.786 29.447 21.765 28.939 C 22.648 28.471 23.385 27.769 23.897 26.912 C 24.414 26.026 24.679 25.015 24.663 23.99 L 24.663 13.384 L 23.2 13.384 L 23.2 23.888 C 23.214 24.682 23.018 25.466 22.634 26.161 C 22.256 26.824 21.699 27.368 21.026 27.729 C 20.277 28.122 19.44 28.318 18.594 28.3 C 17.749 28.319 16.913 28.122 16.165 27.729 C 15.494 27.366 14.937 26.823 14.558 26.161 C 14.171 25.467 13.974 24.683 13.987 23.888 L 13.987 13.384 L 12.522 13.385 Z M 28.916 13.385 L 28.916 29.404 L 30.379 29.404 L 30.379 13.385 L 28.916 13.385 Z" style="fill: rgb(17, 24, 28);"/>
</svg>