<?xml version="1.0" encoding="utf-8"?>
<svg width="24" height="24" viewBox="0 0 480 480" fill="none" xmlns="http://www.w3.org/2000/svg" class="mr-3 h-8">
  <path d="M 224.733 33.699 C 216.744 36.062 203.99 43.845 197.964 50.1 C 191.657 56.493 182.407 73.171 162.786 114.31 C 158.581 123.066 150.733 139.327 145.407 150.445 C 139.941 161.564 133.354 175.323 130.551 181.022 C 127.888 186.72 118.919 205.066 110.79 221.883 C 102.661 238.561 95.934 252.459 95.934 252.737 C 95.934 252.876 91.169 263.022 85.282 275.113 C 61.457 324.174 48.282 352.388 48.282 354.472 C 48.282 355.167 49.544 356.835 51.225 358.364 C 53.888 360.727 56.131 360.866 76.032 360.449 C 88.085 360.31 105.044 359.615 113.453 359.198 L 128.869 358.225 L 138.96 338.072 C 147.79 320.283 174.278 266.218 202.589 208.123 C 215.903 180.605 230.479 148.777 230.479 147.11 C 230.479 146.693 232.722 141.411 235.525 135.574 C 242.252 121.12 257.388 85.401 263.415 70.113 C 269.161 55.381 270.282 48.849 268.74 41.344 C 267.619 36.479 266.919 35.645 262.013 34.116 C 255.706 32.31 230.339 31.893 224.733 33.699 Z" class="fill-content2" style="fill: rgb(28, 28, 28);"/>
  <path d="M 279.462 60.679 C 277.5 68.601 264.886 100.011 255.636 119.886 C 252.553 126.418 249.049 135.035 247.788 138.927 L 245.685 146.293 L 258.019 170.893 C 264.886 184.374 280.303 215.506 292.496 239.967 C 346.034 348.235 364.394 382.842 381.212 407.442 C 387.659 416.754 400.833 431.069 402.935 431.069 C 406.159 431.069 420.174 418.838 424.379 412.028 C 432.367 399.798 435.17 390.625 435.31 375.476 C 435.451 357.825 436.712 361.021 382.193 251.086 C 331.318 148.377 317.443 120.303 300.345 85.001 C 296.981 78.191 282.265 53.035 281.564 53.035 C 281.284 53.035 280.443 56.51 279.462 60.679 Z" class="fill-content2" style="fill: rgb(28, 28, 28);"/>
  <path d="M 80.867 372.696 C 62.367 373.252 47.091 373.808 46.951 373.808 C 46.811 373.947 45.97 375.337 45.129 376.866 C 43.167 380.479 47.652 397.296 53.958 410.221 C 62.508 427.594 85.352 442.883 107.777 446.357 C 119.269 448.164 377.568 447.608 382.614 445.801 C 384.295 445.106 385.697 443.994 385.697 443.299 C 385.697 441.771 351.78 381.174 347.576 375.059 L 344.913 371.306 L 229.708 371.584 C 166.36 371.723 99.367 372.279 80.867 372.696 Z" class="fill-content2" style="fill: rgb(28, 28, 28);"/>
</svg>