<?xml version="1.0" encoding="utf-8"?>
<svg class="h-8 text-gray-950 dark:text-white" height="32" viewBox="0 0 94 94" fill="none" xmlns="http://www.w3.org/2000/svg">
  <path d="M 58.652 36.514 C 58.652 33.597 56.287 31.232 53.37 31.232 C 50.452 31.232 48.087 33.597 48.087 36.514 C 48.087 39.432 50.452 41.797 53.37 41.797 C 56.287 41.797 58.652 39.432 58.652 36.514 Z" style="fill: rgb(3, 7, 18);"/>
  <path d="M 47.65 41.769 C 47.52 41.759 47.388 41.754 47.254 41.754 C 44.357 41.754 42.009 44.103 42.009 47 C 42.009 49.897 44.357 52.246 47.254 52.246 C 50.151 52.246 52.5 49.897 52.5 47 C 52.5 45.92 52.174 44.916 51.614 44.082 C 50.064 43.724 48.691 42.901 47.65 41.769 Z" style="fill: rgb(3, 7, 18);"/>
  <path d="M 39.805 44.79 C 39.597 45.49 39.486 46.232 39.486 47 C 39.486 47.768 39.597 48.51 39.805 49.21 C 38.969 51.016 37.141 52.269 35.02 52.269 C 32.11 52.269 29.751 49.91 29.751 47 C 29.751 44.09 32.11 41.731 35.02 41.731 C 37.141 41.731 38.969 42.984 39.805 44.79 Z" style="fill: rgb(3, 7, 18);"/>
  <path d="M 53.371 52.212 C 56.283 52.212 58.645 54.573 58.645 57.486 C 58.645 60.398 56.283 62.76 53.371 62.76 C 50.458 62.76 48.097 60.398 48.097 57.486 C 48.097 56.41 48.419 55.41 48.972 54.576 C 50.551 54.219 51.947 53.382 52.999 52.225 C 53.122 52.217 53.246 52.212 53.371 52.212 Z" style="fill: rgb(3, 7, 18);"/>
  <path d="M 64.746 47 C 64.746 44.094 62.39 41.738 59.484 41.738 C 59.357 41.738 59.231 41.742 59.106 41.751 C 58.057 42.899 56.669 43.731 55.1 44.088 C 54.95 44.313 54.817 44.55 54.703 44.798 C 54.909 45.496 55.02 46.235 55.02 47 C 55.02 47.765 54.909 48.504 54.703 49.202 C 54.817 49.45 54.95 49.687 55.1 49.912 C 56.669 50.269 58.057 51.101 59.106 52.249 C 59.231 52.258 59.357 52.262 59.484 52.262 C 62.39 52.262 64.746 49.906 64.746 47 Z" style="fill: rgb(3, 7, 18);"/>
  <path d="M 45.603 57.486 C 45.603 56.718 45.714 55.976 45.922 55.276 C 45.809 55.032 45.678 54.798 45.531 54.576 C 43.954 54.219 42.56 53.383 41.509 52.228 C 41.386 52.22 41.261 52.215 41.136 52.215 C 41.01 52.215 40.886 52.22 40.762 52.228 C 39.711 53.382 38.317 54.218 36.741 54.575 C 36.188 55.409 35.865 56.41 35.865 57.486 C 35.865 60.397 38.225 62.756 41.136 62.756 C 43.257 62.756 45.086 61.503 45.922 59.696 C 45.714 58.996 45.603 58.254 45.603 57.486 Z" style="fill: rgb(3, 7, 18);"/>
  <path d="M 45.509 39.426 C 45.661 39.199 45.795 38.96 45.91 38.709 C 45.705 38.013 45.595 37.275 45.595 36.512 C 45.595 35.749 45.705 35.012 45.91 34.315 C 45.078 32.506 43.249 31.25 41.127 31.25 C 38.221 31.25 35.865 33.606 35.865 36.512 C 35.865 37.589 36.189 38.591 36.745 39.425 C 38.312 39.783 39.698 40.614 40.746 41.761 C 40.872 41.77 40.999 41.774 41.127 41.774 C 41.257 41.774 41.386 41.769 41.513 41.76 C 42.56 40.615 43.945 39.784 45.509 39.426 Z" style="fill: rgb(3, 7, 18);"/>
  <path fillrule="evenodd" cliprule="evenodd" d="M 47 89 C 70.196 89 89 70.196 89 47 C 89 23.804 70.196 5 47 5 C 23.804 5 5 23.804 5 47 C 5 70.196 23.804 89 47 89 Z M 47 79.518 C 29.041 79.518 14.482 64.959 14.482 47 C 14.482 29.041 29.041 14.482 47 14.482 C 64.959 14.482 79.518 29.041 79.518 47 C 79.518 64.959 64.959 79.518 47 79.518 Z" style="fill: rgb(3, 7, 18);"/>
</svg>