<?xml version="1.0" encoding="utf-8"?>
<svg xmlns="http://www.w3.org/2000/svg" viewBox="0 0 300 300" class="inline-block transition duration-150 ease-out size-6 group-hover:scale-105 group-active:scale-100">
  <circle cx="150" cy="150" r="120" fill-opacity="0" stroke="#13cdc6" stroke-linejoin="round" stroke-width="16" fill="#293340"/>
  <circle cx="150" cy="150" r="96" fill="#293340"/>
  <path d="M 152.424 187.032 C 155.283 197.701 148.951 208.668 138.282 211.527 L 129.44 213.9 C 118.771 216.759 107.804 210.427 104.945 199.758 L 102.576 190.916 C 99.714 180.245 106.046 169.275 116.718 166.416 L 125.56 164.047 C 136.231 161.185 147.201 167.517 150.06 178.189 L 152.424 187.032 Z" fill="#818cf8" fill-rule="evenodd"/>
  <path d="M 213.9 170.561 C 216.762 181.232 210.429 192.203 199.757 195.061 L 190.915 197.43 C 180.246 200.288 169.28 193.957 166.421 183.288 L 164.051 174.446 C 161.189 163.775 167.521 152.805 178.193 149.946 L 187.035 147.577 C 197.706 144.715 208.676 151.047 211.535 161.719 L 213.9 170.561 Z" fill="#f472b6" fill-rule="evenodd"/>
  <path d="M 135.953 125.561 C 138.815 136.232 132.483 147.202 121.811 150.061 L 112.969 152.43 C 102.3 155.289 91.333 148.957 88.474 138.288 L 86.105 129.446 C 83.243 118.775 89.575 107.805 100.247 104.946 L 109.089 102.577 C 119.758 99.718 130.725 106.05 133.584 116.719 L 135.953 125.561 Z" fill="#34d399" fill-rule="evenodd"/>
  <path d="M 197.424 109.09 C 200.283 119.759 193.951 130.726 183.282 133.585 L 174.44 135.954 C 163.769 138.816 152.799 132.484 149.94 121.812 L 147.571 112.97 C 144.712 102.301 151.044 91.334 161.713 88.475 L 170.555 86.106 C 181.226 83.244 192.196 89.576 195.055 100.248 L 197.424 109.09 Z" fill="#fbbf24" fill-rule="evenodd"/>
</svg>