<?xml version="1.0" encoding="utf-8"?>
<svg class="w-[130px] text-dark 2xl:w-[160px] dark:text-white" viewBox="0 0 46 46" fill="none" xmlns="http://www.w3.org/2000/svg">
  <g clip-path="url(#clip0_2433_919)" transform="matrix(1, 0, 0, 1, 2.906416, 2.982636)">
    <path opacity="0.72" d="M40.0882 18.3521C40.0685 18.1526 39.9758 17.9672 39.8277 17.8315C39.6796 17.6957 39.4864 17.6191 39.2852 17.6161H19.2732C18.7298 17.6293 18.1993 17.7839 17.7344 18.0646C17.2695 18.3453 16.8864 18.7423 16.6231 19.2161C16.3794 19.6398 16.2512 20.1197 16.2512 20.6081C16.2512 21.0965 16.3794 21.5763 16.6231 22.0001C16.6927 22.1333 16.796 22.2462 16.9227 22.3276C17.0495 22.409 17.1952 22.456 17.3458 22.4641H39.3334C39.5347 22.4611 39.7278 22.3844 39.8759 22.2487C40.024 22.1129 40.1168 21.9276 40.1365 21.7281C40.1365 21.1041 40.1365 20.5761 40.1365 20.1281C40.1365 19.6801 40.1364 18.9601 40.0882 18.3521Z" fill="#3758F9"/>
    <path d="M40.072 18.3521C40.0561 18.1539 39.9667 17.9688 39.8213 17.8327C39.6758 17.6967 39.4846 17.6194 39.285 17.6161H36.0728C35.9602 17.6174 35.849 17.6422 35.7466 17.6891C35.6442 17.736 35.5529 17.8038 35.4786 17.8881C35.4037 17.9692 35.3476 18.0657 35.3143 18.1707C35.281 18.2758 35.2713 18.3869 35.2859 18.4961C35.2859 19.0081 35.2859 19.5201 35.2859 20.0961C35.2818 22.6492 34.6323 25.1602 33.3972 27.3973C32.1622 29.6343 30.3812 31.5255 28.219 32.8961C27.9941 33.0401 27.7855 33.2161 27.5445 33.3441C26.366 34.0127 25.1015 34.5187 23.7861 34.8481L25.8902 38.5761C25.9616 38.6994 26.0648 38.8014 26.189 38.8717C26.3132 38.942 26.4539 38.9781 26.5968 38.9761C26.6818 38.9914 26.7689 38.9914 26.8538 38.9761L27.3677 38.7681L27.8335 38.5761C28.544 38.2821 29.2359 37.9455 29.9055 37.5681C33.0369 35.8108 35.6388 33.2502 37.4407 30.1524C39.2427 27.0545 40.1791 23.5324 40.1524 19.9521C40.1524 19.3601 40.1202 18.8961 40.072 18.3521Z" fill="#3758F9"/>
    <path d="M28.7035 33.5387C28.5956 33.3562 28.424 33.2196 28.2216 33.1547H27.9967C27.8573 33.1558 27.72 33.1887 27.5952 33.2507C25.305 34.5489 22.7137 35.2274 20.0788 35.2187C16.0347 35.2103 12.1587 33.6061 9.29915 30.7574C6.43957 27.9087 4.8293 24.0474 4.82081 20.0187C4.8293 15.99 6.43957 12.1288 9.29915 9.28005C12.1587 6.43133 16.0347 4.82719 20.0788 4.81873C22.7125 4.81957 25.3014 5.49741 27.5952 6.78673C27.7151 6.86254 27.8547 6.9015 27.9967 6.89872H28.1734C28.2835 6.87451 28.3874 6.82791 28.4786 6.76184C28.5698 6.69576 28.6465 6.61163 28.7035 6.51473L30.3096 3.73073C30.4158 3.54557 30.445 3.32636 30.391 3.12003C30.3369 2.91369 30.2039 2.73663 30.0204 2.62673C26.9973 0.924837 23.5834 0.0318584 20.1109 0.0347359C14.789 0.0431984 9.68741 2.15305 5.92422 5.90195C2.16104 9.65084 0.0431627 14.733 0.034668 20.0347C0.0431627 25.3365 2.16104 30.4186 5.92422 34.1675C9.68741 37.9164 14.789 40.0263 20.1109 40.0347C23.5834 40.0376 26.9973 39.1446 30.0204 37.4427C30.1123 37.3914 30.1929 37.3221 30.2575 37.2392C30.322 37.1562 30.3691 37.0611 30.3961 36.9597C30.423 36.8582 30.4294 36.7524 30.4145 36.6485C30.3996 36.5445 30.3639 36.4447 30.3096 36.3547L28.7035 33.5387Z" fill="#3758F9"/>
    <path opacity="0.56" d="M22.3727 22.4H17.2976C17.1537 22.3897 17.0142 22.3451 16.8912 22.2699C16.7682 22.1947 16.6652 22.0912 16.5908 21.968L25.9224 38.432C25.9938 38.5552 26.0969 38.6573 26.2211 38.7276C26.3454 38.7979 26.4861 38.8339 26.6289 38.832C26.7193 38.8472 26.8117 38.8472 26.9021 38.832C27.9633 38.4513 28.9897 37.9802 29.9698 37.4239C30.0616 37.3726 30.1421 37.3033 30.2066 37.2204C30.2711 37.1374 30.3182 37.0423 30.3452 36.9409C30.3722 36.8394 30.3785 36.7336 30.3636 36.6297C30.3488 36.5258 30.3131 36.4259 30.2587 36.3359L22.3727 22.4Z" fill="#3758F9"/>
  </g>
  <defs>
    <clipPath id="clip0_2433_919">
      <rect width="40.1525" height="40" fill="white"/>
    </clipPath>
  </defs>
</svg>