<?xml version="1.0" encoding="utf-8"?>
<svg aria-hidden="true" viewBox="0 0 280 280" xmlns="http://www.w3.org/2000/svg" class="h-8">
  <path d="M 35.994 167.48 C 38.794 167.48 41.674 166.92 42.714 166.6 L 42.714 156.92 C 41.834 157.16 40.714 157.4 39.514 157.4 C 35.754 157.4 33.994 155.64 33.994 152.12 L 33.994 136.44 L 42.714 136.44 L 42.714 127.16 L 33.994 127.16 L 33.994 112.52 L 23.194 116.52 L 23.194 127.16 L 16.154 127.16 L 16.154 136.44 L 22.794 136.44 L 22.794 154.76 C 22.794 163.88 28.874 167.48 35.994 167.48 Z M 50.071 166.28 L 61.271 166.28 L 61.271 143.64 C 62.231 139.88 66.151 137.08 70.391 137.08 C 71.911 137.08 73.191 137.16 74.471 137.48 L 74.471 126.12 C 73.991 126.04 72.391 125.88 71.591 125.88 C 66.631 125.88 63.031 128.52 61.111 132.84 L 61.111 127.16 L 50.071 127.16 L 50.071 166.28 Z M 97.996 167.48 C 105.836 167.48 110.476 165.4 114.076 163.08 L 114.076 153.4 C 108.956 156.76 104.476 158.2 99.196 158.2 C 94.316 158.2 89.356 155.24 89.116 149.88 L 116.796 149.88 C 116.876 149.24 116.956 147.56 116.956 146.6 C 116.956 134.52 109.916 125.88 97.516 125.88 C 86.316 125.88 77.436 134.12 77.436 146.44 C 77.436 159.96 86.716 167.48 97.996 167.48 Z M 89.356 142.36 C 89.596 138.84 92.636 135.16 97.516 135.16 C 102.876 135.16 105.436 138.68 105.676 142.36 L 89.356 142.36 Z M 169.253 125.88 C 162.773 125.88 158.853 129.16 156.853 131.48 C 154.373 127.8 150.133 125.88 145.573 125.88 C 140.613 125.88 137.333 127.8 135.173 130.28 L 135.173 127.16 L 124.133 127.16 L 124.133 166.28 L 135.333 166.28 L 135.333 140.2 C 136.933 137.8 139.173 136.12 142.133 136.12 C 145.893 136.12 148.133 138.76 148.133 143 L 148.133 166.28 L 159.333 166.28 L 159.333 140.2 L 159.333 139.96 C 160.933 137.72 163.173 136.12 165.973 136.12 C 169.733 136.12 172.053 138.76 172.053 143 L 172.053 166.28 L 183.253 166.28 L 183.253 140.2 C 183.253 130.92 176.613 125.88 169.253 125.88 Z M 210.903 167.48 C 223.543 167.48 232.263 158.36 232.263 146.6 C 232.263 134.92 223.543 125.88 210.903 125.88 C 198.263 125.88 189.623 134.92 189.623 146.6 C 189.623 158.36 198.263 167.48 210.903 167.48 Z M 210.903 156.92 C 205.543 156.92 201.223 153.08 201.223 146.6 C 201.223 140.28 205.543 136.36 210.903 136.36 C 216.343 136.36 220.663 140.28 220.663 146.6 C 220.663 153.08 216.343 156.92 210.903 156.92 Z M 239.445 166.28 L 250.645 166.28 L 250.645 143.64 C 251.605 139.88 255.525 137.08 259.765 137.08 C 261.285 137.08 262.565 137.16 263.845 137.48 L 263.845 126.12 C 263.365 126.04 261.765 125.88 260.965 125.88 C 256.005 125.88 252.405 128.52 250.485 132.84 L 250.485 127.16 L 239.445 127.16 L 239.445 166.28 Z" style=""/>
</svg>